<?xml version="1.0" standalone="no"?>
<!DOCTYPE svg PUBLIC "-//W3C//DTD SVG 20010904//EN"
 "http://www.w3.org/TR/2001/REC-SVG-20010904/DTD/svg10.dtd">
<svg version="1.0" xmlns="http://www.w3.org/2000/svg"
 width="2400.000000pt" height="2456.000000pt" viewBox="0 0 2400.000000 2456.000000"
 preserveAspectRatio="xMidYMid meet">

<g transform="translate(0.000000,2456.000000) scale(0.100000,-0.100000)"
fill="#000000" stroke="none">
<path d="M11829 24550 c-1350 -49 -2646 -305 -3874 -765 -2817 -1056 -5152
-3121 -6556 -5797 -73 -139 -87 -175 -76 -183 7 -5 894 -694 1969 -1529 1076
-835 1960 -1518 1964 -1517 5 1 35 72 66 159 319 874 768 1636 1403 2382 145
170 606 625 790 781 1557 1312 3459 1908 5470 1714 1125 -109 2174 -477 3105
-1090 263 -173 558 -402 789 -612 l94 -85 186 184 c102 102 569 558 1036 1014
468 456 1140 1112 1495 1458 355 346 665 648 688 671 l44 42 -134 121 c-2065
1864 -4586 2902 -7383 3042 -297 14 -819 19 -1076 10z"/>
<path d="M12240 12285 l0 -2265 3375 0 c2053 0 3375 -4 3375 -9 0 -44 -70
-406 -105 -543 -326 -1286 -1143 -2494 -2240 -3315 -77 -58 -141 -109 -143
-113 -2 -4 111 -96 250 -204 139 -107 411 -318 605 -468 609 -472 1063 -824
1423 -1103 192 -148 510 -395 707 -547 197 -153 468 -363 603 -468 135 -104
249 -190 253 -190 13 0 432 417 582 580 905 983 1615 2111 2124 3372 554 1376
854 2827 922 4458 13 318 7 1163 -10 1425 -36 540 -95 987 -193 1453 l-42 202
-5743 0 -5743 0 0 -2265z"/>
</g>
</svg>
